<svg width="227.361" height="112.065" xmlns="http://www.w3.org/2000/svg" xmlns:xlink="http://www.w3.org/1999/xlink">
 <defs>
  <path d="m0,0l227.36,0l0,112.065l-227.36,0l0,-112.065z" id="a"/>
 </defs>
 <clipPath id="b">
  <use id="svg_1" xlink:href="#a"/>
 </clipPath>
 <g>
  <title>background</title>
  <rect fill="none" id="canvas_background" height="402" width="582" y="-1" x="-1"/>
 </g>
 <g>
  <title>Layer 1</title>
  <path id="svg_2" d="m66.726,112.065l-35.67,0c-1.65,0 -3,-1.35 -3,-3l0,-10c0,-1.65 1.35,-3 3,-3l35.67,0c1.65,0 3,1.35 3,3l0,10c0,1.65 -1.35,3 -3,3m0,-96.065l-35.67,0c-1.65,0 -3,-1.35 -3,-3l0,-10c0,-1.65 1.35,-3 3,-3l35.67,0c1.65,0 3,1.35 3,3l0,10c0,1.65 -1.35,3 -3,3m127.528,96.065l-35.67,0c-1.65,0 -3,-1.35 -3,-3l0,-10c0,-1.65 1.35,-3 3,-3l35.67,0c1.65,0 3,1.35 3,3l0,10c0,1.65 -1.35,3 -3,3m0,-96.065l-35.67,0c-1.65,0 -3,-1.35 -3,-3l0,-10c0,-1.65 1.35,-3 3,-3l35.67,0c1.65,0 3,1.35 3,3l0,10c0,1.65 -1.35,3 -3,3" fill="#1D1D1B" clip-path="url(#b)"/>
  <path id="svg_3" d="m21.86,3.41c-11.045,0 -20,8.954 -20,20l0,64.68c0,11.045 8.955,20 20,20l185.501,0c11.047,0 20,-8.955 20,-20l0,-64.68c0,-11.046 -8.953,-20 -20,-20l-185.501,0z" fill="#ff0000" clip-path="url(#b)"/>
  <path id="svg_4" d="m165.532,97.034l-39,0c-5.5,0 -10,-4.5 -10,-10l0,-62.002c0,-5.5 4.5,-10 10,-10l39,0c5.5,0 10,4.5 10,10l0,62.002c0,5.5 -4.5,10 -10,10m-123.78,0l-0.887,0c-5.5,0 -10,-4.5 -10,-10l0,-62.002c0,-5.5 4.5,-10 10,-10l0.887,0c5.5,0 10,4.5 10,10l0,62.002c0,5.5 -4.5,10 -10,10" fill="#E5F5F9" clip-path="url(#b)"/>
  <path id="svg_5" d="m1.392,33.752c-0.77,0 -1.392,-2.874 -1.392,-6.42c0,-3.544 0.623,-6.418 1.392,-6.418s1.392,2.874 1.392,6.42c0,3.544 -0.623,6.418 -1.392,6.418m0,56.833c-0.77,0 -1.392,-2.875 -1.392,-6.42c0,-3.543 0.623,-6.417 1.392,-6.417s1.392,2.874 1.392,6.418c0,3.545 -0.623,6.42 -1.392,6.42" fill="#F47706" clip-path="url(#b)"/>
  <path id="svg_6" d="m218.773,6.998c2.256,3.238 3.588,7.167 3.588,11.412l0,66.68c0,11.046 -7.422,17.996 -18.468,17.996l-187.503,0c-4.245,0 -7.763,-1.332 -11,-3.588c3.613,5.187 9.2,8.588 16,8.588l185.5,0c11.046,0 20.47,-8.95 20.47,-19.996l0,-64.68c0,-6.8 -3.402,-12.8 -8.59,-16.412" fill="#262F35" clip-path="url(#b)"/>
 </g>
</svg>