<svg xmlns="http://www.w3.org/2000/svg" xmlns:xlink="http://www.w3.org/1999/xlink" viewBox="0 0 227.361 112.065" enable-background="new 0 0 227.361 112.065"><defs><path id="a" d="M0 0h227.36v112.065H0z"/></defs><clipPath id="b"><use xlink:href="#a" overflow="visible"/></clipPath><path clip-path="url(#b)" fill="#1D1D1B" d="M66.726 112.065h-35.67c-1.65 0-3-1.35-3-3v-10c0-1.65 1.35-3 3-3h35.67c1.65 0 3 1.35 3 3v10c0 1.65-1.35 3-3 3M66.726 16h-35.67c-1.65 0-3-1.35-3-3V3c0-1.65 1.35-3 3-3h35.67c1.65 0 3 1.35 3 3v10c0 1.65-1.35 3-3 3M194.254 112.065h-35.67c-1.65 0-3-1.35-3-3v-10c0-1.65 1.35-3 3-3h35.67c1.65 0 3 1.35 3 3v10c0 1.65-1.35 3-3 3M194.254 16h-35.67c-1.65 0-3-1.35-3-3V3c0-1.65 1.35-3 3-3h35.67c1.65 0 3 1.35 3 3v10c0 1.65-1.35 3-3 3"/><path clip-path="url(#b)" fill="#333F48" d="M21.86 3.41c-11.045 0-20 8.954-20 20v64.68c0 11.045 8.955 20 20 20h185.501c11.047 0 20-8.955 20-20V23.41c0-11.046-8.953-20-20-20H21.86z"/><path clip-path="url(#b)" fill="#E5F5F9" d="M165.532 97.034h-39c-5.5 0-10-4.5-10-10V25.032c0-5.5 4.5-10 10-10h39c5.5 0 10 4.5 10 10v62.002c0 5.5-4.5 10-10 10M41.752 97.034h-.887c-5.5 0-10-4.5-10-10V25.032c0-5.5 4.5-10 10-10h.887c5.5 0 10 4.5 10 10v62.002c0 5.5-4.5 10-10 10"/><path clip-path="url(#b)" fill="#F47706" d="M1.392 33.752c-.77 0-1.392-2.874-1.392-6.42 0-3.544.623-6.418 1.392-6.418s1.392 2.874 1.392 6.42c0 3.544-.623 6.418-1.392 6.418M1.392 90.585C.622 90.585 0 87.71 0 84.165c0-3.543.623-6.417 1.392-6.417s1.392 2.874 1.392 6.418c0 3.545-.623 6.42-1.392 6.42"/><path clip-path="url(#b)" fill="#262F35" d="M218.773 6.998c2.256 3.238 3.588 7.167 3.588 11.412v66.68c0 11.046-7.422 17.996-18.468 17.996H16.39c-4.245 0-7.763-1.332-11-3.588 3.613 5.187 9.2 8.588 16 8.588H206.89c11.046 0 20.47-8.95 20.47-19.996V23.41c0-6.8-3.402-12.8-8.59-16.412"/></svg>